<svg xmlns="http://www.w3.org/2000/svg" width="24" height="24" viewBox="0 0 24 24"><defs><style>.a{fill:none;}.b{fill:#484848;}</style></defs><rect class="a" width="24" height="24"/><g transform="translate(1 1)"><path class="b" d="M20.7,19.259,15.01,13.566A6.632,6.632,0,0,0,11.048,3.143a6.657,6.657,0,0,0-3.358,12.87,6.579,6.579,0,0,0,5.877-1L19.259,20.7a1.02,1.02,0,0,0,1.444,0h0A1.02,1.02,0,0,0,20.7,19.259ZM5.048,9.655a4.607,4.607,0,1,1,4.607,4.607A4.6,4.6,0,0,1,5.048,9.655Z" transform="translate(-1 -1)"/></g></svg>