<svg xmlns="http://www.w3.org/2000/svg" width="24" height="24" viewBox="0 0 24 24"><defs><style>.a{fill:none;}.b{fill:#484848;}</style></defs><rect class="a" width="24" height="24"/><g transform="translate(1.708 4)"><path class="b" d="M6.359,20.95h0A1.16,1.16,0,0,1,5.2,19.793V8.227H4.289a.572.572,0,0,1-.4-.983l2.07-2.07a.573.573,0,0,1,.821,0l2.07,2.07a.578.578,0,0,1-.416.983H7.516V19.793A1.16,1.16,0,0,1,6.359,20.95Z" transform="translate(-3.708 -5)"/><g transform="translate(8.555 1.796)"><path class="b" d="M7.717,2a5.722,5.722,0,1,0,5.728,5.722A5.72,5.72,0,0,0,7.717,2Zm2.295,8.011a.57.57,0,0,1-.807,0L7.322,8.129a.572.572,0,0,1-.172-.406V5.433a.574.574,0,0,1,.572-.572h0a.574.574,0,0,1,.572.572V7.488L10.011,9.2A.57.57,0,0,1,10.011,10.011Z" transform="translate(-2 -2)"/></g></g></svg>